# Blender v2.79 (sub 0) OBJ File: 'barrel.blend'
# www.blender.org
mtllib BarrelClosed.mtl
o BarrelClosed_Cube.001
v -0.265165 0.000000 0.265165
v -0.251651 1.200000 0.251651
v -0.265165 0.000000 -0.265165
v -0.251651 1.200000 -0.251651
v 0.265165 0.000000 0.265165
v 0.251651 1.200000 0.251651
v 0.265165 0.000000 -0.265165
v 0.251651 1.200000 -0.251651
v 0.000000 0.000000 -0.375000
v 0.000000 1.200000 -0.355888
v 0.000000 0.000000 0.375000
v 0.000000 1.200000 0.355888
v -0.375000 0.000000 0.000000
v -0.355888 1.200000 0.000000
v 0.375000 0.000000 0.000000
v 0.355888 1.200000 0.000000
v 0.000000 0.000000 0.000000
v -0.265165 0.285765 -0.265165
v -0.265165 0.247237 -0.265165
v -0.272954 0.266501 -0.272954
v 0.265165 0.285765 -0.265165
v 0.265165 0.247237 -0.265165
v 0.272954 0.266501 -0.272954
v 0.265165 0.285765 0.265165
v 0.265165 0.247237 0.265165
v 0.272954 0.266501 0.272954
v 0.000000 0.247237 0.375000
v 0.000000 0.285765 0.375000
v -0.000000 0.266501 0.386015
v 0.000000 0.247237 -0.375000
v 0.000000 0.285765 -0.375000
v -0.000000 0.266501 -0.386015
v 0.375000 0.247237 0.000000
v 0.375000 0.285765 0.000000
v 0.386015 0.266501 -0.000000
v -0.375000 0.247237 0.000000
v -0.375000 0.285765 0.000000
v -0.386015 0.266501 -0.000000
v -0.265165 0.285765 0.265165
v -0.265165 0.247237 0.265165
v -0.272954 0.266501 0.272954
v -0.265165 0.731801 0.265165
v -0.265165 0.770627 0.265165
v -0.273480 0.751214 0.273480
v -0.265165 0.731801 -0.265165
v -0.265165 0.770627 -0.265165
v -0.273480 0.751214 -0.273480
v 0.265165 0.731801 -0.265165
v 0.265165 0.770627 -0.265165
v 0.273480 0.751214 -0.273480
v 0.265165 0.731801 0.265165
v 0.265165 0.770627 0.265165
v 0.273480 0.751214 0.273480
v 0.000000 0.770627 0.375000
v 0.000000 0.731801 0.375000
v -0.000000 0.751214 0.386759
v 0.000000 0.770627 -0.375000
v 0.000000 0.731801 -0.375000
v -0.000000 0.751214 -0.386759
v 0.375000 0.770627 0.000000
v 0.375000 0.731801 0.000000
v 0.386759 0.751214 -0.000000
v -0.375000 0.770627 0.000000
v -0.375000 0.731801 0.000000
v -0.386759 0.751214 -0.000000
v -0.375000 1.200000 0.000000
v -0.265165 1.200000 -0.265165
v 0.000000 1.200000 -0.375000
v 0.265165 1.200000 -0.265165
v 0.375000 1.200000 0.000000
v 0.265165 1.200000 0.265165
v 0.000000 1.200000 0.375000
v -0.265165 1.200000 0.265165
v 0.000000 1.176508 0.355888
v 0.355888 1.176508 0.000000
v -0.355888 1.176508 0.000000
v -0.251651 1.176508 -0.251651
v 0.000000 1.176508 -0.355888
v 0.251651 1.176508 -0.251651
v 0.251651 1.176508 0.251651
v -0.251651 1.176508 0.251651
v 0.000000 1.176508 0.000000
vt 0.375103 0.124663
vt 0.375036 0.318834
vt 0.250091 0.318791
vt 0.250158 0.124620
vt 0.125214 0.124577
vt 0.125147 0.318748
vt 0.000203 0.318705
vt 0.000270 0.124534
vt 0.874880 0.124835
vt 0.874813 0.319006
vt 0.749869 0.318963
vt 0.749936 0.124792
vt 0.624991 0.124749
vt 0.624924 0.318920
vt 0.499980 0.318877
vt 0.500047 0.124706
vt 0.542442 0.768152
vt 0.705688 0.767496
vt 0.658339 0.883121
vt 0.543099 0.931399
vt 0.432201 0.877825
vt 0.387273 0.768090
vt 0.387273 0.768090
vt 0.432201 0.877825
vt 0.652198 0.659624
vt 0.697126 0.769359
vt 0.697126 0.769359
vt 0.652198 0.659624
vt 0.379196 0.768809
vt 0.427474 0.884049
vt 0.426546 0.653184
vt 0.541786 0.604906
vt 0.541565 0.923651
vt 0.541565 0.923651
vt 0.433099 0.658726
vt 0.433099 0.658726
vt 0.657411 0.652256
vt 0.999824 0.124878
vt 0.999757 0.319049
vt 0.749863 0.335865
vt 0.749798 0.522783
vt 0.624854 0.522740
vt 0.624919 0.335822
vt 0.999752 0.335951
vt 0.999687 0.522869
vt 0.874743 0.522826
vt 0.874807 0.335908
vt 0.500090 0.000305
vt 0.500053 0.107933
vt 0.375108 0.107890
vt 0.375145 0.000262
vt 0.625034 0.000348
vt 0.624997 0.107976
vt 0.749979 0.000391
vt 0.749942 0.108019
vt 0.999867 0.000477
vt 0.999830 0.108106
vt 0.874886 0.108063
vt 0.874923 0.000434
vt 0.375030 0.335736
vt 0.374966 0.522654
vt 0.250021 0.522611
vt 0.250086 0.335693
vt 0.125141 0.335650
vt 0.125077 0.522568
vt 0.000133 0.522525
vt 0.000197 0.335607
vt 0.250164 0.107847
vt 0.250201 0.000219
vt 0.125257 0.000176
vt 0.125220 0.107804
vt 0.000275 0.107761
vt 0.000312 0.000133
vt 0.499910 0.522697
vt 0.499974 0.335779
vt 0.250161 0.116234
vt 0.375105 0.116277
vt 0.000272 0.116148
vt 0.125217 0.116191
vt 0.749939 0.116406
vt 0.874883 0.116449
vt 0.500050 0.116320
vt 0.624994 0.116363
vt 0.999827 0.116492
vt 0.375033 0.327285
vt 0.499977 0.327328
vt 0.874810 0.327457
vt 0.999755 0.327500
vt 0.125144 0.327199
vt 0.250089 0.327242
vt 0.624921 0.327371
vt 0.749866 0.327414
vt 0.000200 0.327156
vt 0.426294 0.883684
vt 0.378953 0.768056
vt 0.651300 0.878723
vt 0.657159 0.884630
vt 0.541531 0.931971
vt 0.658105 0.653765
vt 0.705446 0.769393
vt 0.542834 0.613798
vt 0.427240 0.652819
vt 0.542868 0.605478
vt 0.651300 0.878723
vt 0.542834 0.613798
vt 0.542200 0.768725
vn -0.9618 0.2738 0.0000
vn -0.9577 -0.2876 0.0000
vn -0.6772 -0.2876 -0.6772
vn -0.6801 0.2738 -0.6801
vn 0.0000 0.2738 -0.9618
vn 0.0000 -0.2876 -0.9577
vn 0.6772 -0.2876 -0.6772
vn 0.6801 0.2738 -0.6801
vn 0.9618 0.2738 0.0000
vn 0.9577 -0.2876 0.0000
vn 0.6772 -0.2876 0.6772
vn 0.6801 0.2738 0.6801
vn 0.0000 0.2738 0.9618
vn 0.0000 -0.2876 0.9577
vn -0.6772 -0.2876 0.6772
vn -0.6801 0.2738 0.6801
vn 0.0000 -1.0000 0.0000
vn 0.7764 -0.6302 0.0000
vn 0.5490 -0.6302 0.5490
vn 0.0000 -0.6302 0.7764
vn 0.4203 0.8042 0.4203
vn 0.5943 0.8042 0.0000
vn 0.7764 0.6302 0.0000
vn 0.5490 0.6302 0.5490
vn -0.4203 0.8042 -0.4203
vn -0.5943 0.8042 0.0000
vn -0.7764 0.6302 0.0000
vn -0.5490 0.6302 -0.5490
vn -0.7764 -0.6302 0.0000
vn -0.5490 -0.6302 0.5490
vn -0.5490 -0.6302 -0.5490
vn 0.0000 -0.6302 -0.7764
vn 0.0000 0.8042 0.5943
vn 0.0000 0.6302 0.7764
vn 0.4203 0.8042 -0.4203
vn 0.5490 0.6302 -0.5490
vn 0.5490 -0.6302 -0.5490
vn 0.6772 0.2876 0.6772
vn 0.0000 0.2876 0.9577
vn 0.6772 0.2876 -0.6772
vn 0.9577 0.2876 0.0000
vn -0.6801 -0.2738 0.6801
vn -0.9618 -0.2738 0.0000
vn 0.0000 -0.2738 0.9618
vn 0.6801 -0.2738 0.6801
vn 0.6801 -0.2738 -0.6801
vn 0.9618 -0.2738 0.0000
vn -0.9577 0.2876 0.0000
vn -0.6772 0.2876 -0.6772
vn 0.0000 0.2876 -0.9577
vn 0.0000 0.6302 -0.7764
vn -0.6801 -0.2738 -0.6801
vn 0.0000 -0.2738 -0.9618
vn -0.5490 0.6302 0.5490
vn -0.6772 0.2876 0.6772
vn -0.7071 0.0000 -0.7071
vn -1.0000 0.0000 0.0000
vn 0.7071 0.0000 -0.7071
vn 0.0000 0.0000 -1.0000
vn 0.7071 0.0000 0.7071
vn 1.0000 0.0000 0.0000
vn -0.7071 0.0000 0.7071
vn 0.0000 0.0000 1.0000
vn -0.4203 0.8042 0.4203
vn 0.0000 0.8042 -0.5943
vn 0.0000 1.0000 0.0000
usemtl Material
s 1
f 37/1/1 64/2/2 45/3/3 18/4/4
f 31/5/5 58/6/6 48/7/7 21/8/8
f 34/9/9 61/10/10 51/11/11 24/12/12
f 28/13/13 55/14/14 42/15/15 39/16/16
f 17/17/17 15/18/18 5/19/19 11/20/20
f 4/21/21 14/22/22 76/23/23 77/24/24
f 6/25/25 16/26/26 75/27/27 80/28/28
f 13/29/29 17/17/17 11/20/20 1/30/30
f 24/12/12 51/11/11 55/14/14 28/13/13
f 18/4/4 45/3/3 58/6/6 31/5/5
f 3/31/31 9/32/32 17/17/17 13/29/29
f 10/33/33 4/21/21 77/24/24 78/34/34
f 14/22/22 2/35/35 81/36/36 76/23/23
f 9/32/32 7/37/37 15/18/18 17/17/17
f 21/38/8 48/39/7 61/10/10 34/9/9
f 39/16/16 42/15/15 64/2/2 37/1/1
f 52/40/38 71/41/24 72/42/34 54/43/39
f 49/44/40 69/45/36 70/46/23 60/47/41
f 1/48/30 40/49/42 36/50/43 13/51/29
f 11/52/20 27/53/44 40/49/42 1/48/30
f 5/54/19 25/55/45 27/53/44 11/52/20
f 7/56/37 22/57/46 33/58/47 15/59/18
f 63/60/48 66/61/27 67/62/28 46/63/49
f 57/64/50 68/65/51 69/66/36 49/67/40
f 60/47/41 70/46/23 71/41/24 52/40/38
f 46/63/49 67/62/28 68/65/51 57/64/50
f 15/59/18 33/58/47 25/55/45 5/54/19
f 13/51/29 36/50/43 19/68/52 3/69/31
f 9/70/32 30/71/53 22/72/46 7/73/37
f 54/43/39 72/42/34 73/74/54 43/75/55
f 37/1/1 18/4/4 20/76/56 38/77/57
f 38/77/57 20/76/56 19/68/52 36/50/43
f 31/5/5 21/8/8 23/78/58 32/79/59
f 32/79/59 23/78/58 22/72/46 30/71/53
f 34/9/9 24/12/12 26/80/60 35/81/61
f 35/81/61 26/80/60 25/55/45 33/58/47
f 28/13/13 39/16/16 41/82/62 29/83/63
f 29/83/63 41/82/62 40/49/42 27/53/44
f 24/12/12 28/13/13 29/83/63 26/80/60
f 26/80/60 29/83/63 27/53/44 25/55/45
f 18/4/4 31/5/5 32/79/59 20/76/56
f 20/76/56 32/79/59 30/71/53 19/68/52
f 21/38/8 34/9/9 35/81/61 23/84/58
f 23/84/58 35/81/61 33/58/47 22/57/46
f 39/16/16 37/1/1 38/77/57 41/82/62
f 41/82/62 38/77/57 36/50/43 40/49/42
f 3/69/31 19/68/52 30/71/53 9/70/32
f 43/75/55 63/60/48 65/85/57 44/86/62
f 44/86/62 65/85/57 64/2/2 42/15/15
f 49/44/40 60/47/41 62/87/61 50/88/58
f 50/88/58 62/87/61 61/10/10 48/39/7
f 46/63/49 57/64/50 59/89/59 47/90/56
f 47/90/56 59/89/59 58/6/6 45/3/3
f 52/40/38 54/43/39 56/91/63 53/92/60
f 53/92/60 56/91/63 55/14/14 51/11/11
f 54/43/39 43/75/55 44/86/62 56/91/63
f 56/91/63 44/86/62 42/15/15 55/14/14
f 60/47/41 52/40/38 53/92/60 62/87/61
f 62/87/61 53/92/60 51/11/11 61/10/10
f 57/64/50 49/67/40 50/93/58 59/89/59
f 59/89/59 50/93/58 48/7/7 58/6/6
f 63/60/48 46/63/49 47/90/56 65/85/57
f 65/85/57 47/90/56 45/3/3 64/2/2
f 43/75/55 73/74/54 66/61/27 63/60/48
f 14/22/22 4/21/21 67/94/28 66/95/27
f 10/33/33 8/96/64 69/97/36 68/98/51
f 16/26/26 6/25/25 71/99/24 70/100/23
f 12/101/65 2/35/35 73/102/54 72/103/34
f 4/21/21 10/33/33 68/98/51 67/94/28
f 6/25/25 12/101/65 72/103/34 71/99/24
f 2/35/35 14/22/22 66/95/27 73/102/54
f 8/96/64 16/26/26 70/100/23 69/97/36
f 16/26/26 8/96/64 79/104/54 75/27/27
f 12/101/65 6/25/25 80/28/28 74/105/51
f 2/35/35 12/101/65 74/105/51 81/36/36
f 8/96/64 10/33/33 78/34/34 79/104/54
f 76/23/23 81/36/36 82/106/66
f 78/34/34 82/106/66 79/104/54
f 75/27/27 82/106/66 80/28/28
f 82/106/66 77/24/24 76/23/23
f 82/106/66 81/36/36 74/105/51
f 80/28/28 82/106/66 74/105/51
f 77/24/24 82/106/66 78/34/34
f 79/104/54 82/106/66 75/27/27
