# Blender v2.79 (sub 0) OBJ File: 'barrel.blend'
# www.blender.org
mtllib Door_Metal_Example.mtl
o MetalDoor_TexturesCom_DoorsMetalSingle0212_M
v 0.647370 2.108361 0.000000
v 0.673750 2.108361 0.000000
v 0.673750 2.151739 0.000000
v 0.647370 2.151739 0.000000
v -0.467326 2.108361 0.000000
v 0.503026 2.108361 0.000000
v 0.503026 2.151739 0.000000
v -0.467326 2.151739 0.000000
v -0.495018 2.108361 0.000000
v -0.495018 2.151739 0.000000
v -0.495018 0.002996 0.000000
v -0.467326 0.002996 0.000000
v -0.467326 2.025344 0.000000
v -0.495018 2.025344 0.000000
v 0.503026 2.025344 0.000000
v -0.467326 2.025344 0.029478
v 0.503026 2.025344 0.029478
v 0.647370 0.002996 0.000000
v 0.673750 0.002996 0.000000
v 0.673750 2.025344 0.000000
v 0.647370 2.025344 0.000000
v 0.647370 -0.048261 -0.000000
v 0.673750 -0.048261 -0.000000
v -0.467326 -0.048261 -0.000000
v 0.503026 -0.048261 -0.000000
v 0.503026 0.002996 0.000000
v -0.495018 -0.048261 -0.000000
v -0.467326 2.079444 0.000000
v -0.495018 2.079444 0.000000
v 0.503026 2.079444 0.000000
v 0.673750 2.079444 0.000000
v 0.647370 2.079444 0.000000
v 0.529852 2.025344 0.000000
v 0.529852 2.079444 0.000000
v 0.529852 -0.048261 -0.000000
v 0.529852 0.002996 0.000000
v 0.529852 2.108361 0.000000
v 0.529852 2.151739 0.000000
v -0.650093 2.079444 0.000000
v -0.650093 2.079444 0.043833
v -0.495018 2.079444 0.043833
v -0.650093 -0.048261 -0.000000
v -0.650093 0.002996 0.000000
v 0.647370 2.079444 0.043833
v 0.647370 2.025344 0.043833
v -0.650093 2.108361 0.000000
v -0.650093 2.151739 0.000000
v -0.495018 2.025344 0.043833
v -0.495018 0.002996 0.043833
v -0.650093 2.025344 0.000000
v -0.650093 0.002996 0.043833
v -0.650093 2.025344 0.043833
v -0.673750 2.108361 0.000000
v -0.673750 2.151739 0.000000
v -0.673750 0.002996 0.000000
v -0.673750 2.025344 0.000000
v -0.673750 -0.048261 -0.000000
v -0.673750 2.079444 0.000000
v -0.495018 2.079444 0.075119
v -0.650093 2.079444 0.075119
v -0.467326 2.079444 0.075119
v 0.503026 2.108361 0.075119
v 0.529852 2.108361 0.075119
v 0.529852 2.079444 0.075119
v 0.503026 2.079444 0.075119
v -0.650093 2.108361 0.075119
v 0.529852 2.025344 0.043833
v 0.529852 2.079444 0.043833
v 0.529852 0.002996 0.043833
v 0.647370 0.002996 0.043833
v 0.647370 2.079444 0.075119
v 0.647370 2.108361 0.075119
v -0.495018 2.108361 0.075119
v -0.467326 2.108361 0.075119
v -0.467326 0.002996 0.029476
v 0.503026 0.002996 0.029476
vt 0.980422 0.980283
vt 1.000000 0.980283
vt 1.000000 1.000000
vt 0.980422 1.000000
vt 0.153190 0.980283
vt 0.873303 0.980283
vt 0.873303 1.000000
vt 0.153190 1.000000
vt 0.132640 0.980283
vt 0.132640 1.000000
vt 0.132640 0.023299
vt 0.153190 0.023299
vt 0.153190 0.942548
vt 0.132640 0.942548
vt 0.873302 0.942548
vt 0.153190 0.942548
vt 0.873302 0.942548
vt 0.980422 0.023299
vt 1.000000 0.023299
vt 1.000000 0.942548
vt 0.980422 0.942548
vt 0.980422 0.000000
vt 1.000000 0.000000
vt 0.153190 0.000000
vt 0.873303 0.000000
vt 0.873302 0.023299
vt 0.132640 0.000000
vt 0.153190 0.967139
vt 0.132640 0.967139
vt 0.873302 0.967139
vt 1.000000 0.967139
vt 0.980422 0.967139
vt 0.893212 0.942548
vt 0.893212 0.967139
vt 0.893212 0.000000
vt 0.893212 0.023299
vt 0.893212 0.980283
vt 0.893212 1.000000
vt 0.017555 0.967139
vt 0.017555 0.967139
vt 0.132640 0.967139
vt 0.017555 0.000000
vt 0.017555 0.023299
vt 0.980422 0.967139
vt 0.980422 0.942548
vt 0.017555 0.980283
vt 0.017555 1.000000
vt 0.132640 0.942548
vt 0.132640 0.023299
vt 0.017555 0.942548
vt 0.017555 0.023299
vt 0.017555 0.942548
vt -0.000000 0.980283
vt 0.000000 1.000000
vt 0.000000 0.023299
vt 0.000000 0.942548
vt 0.000000 0.000000
vt 0.000000 0.967139
vt 0.132640 0.967139
vt 0.017555 0.967139
vt 0.153190 0.967139
vt 0.873303 0.980283
vt 0.893212 0.980283
vt 0.893212 0.967139
vt 0.873302 0.967139
vt 0.017555 0.980283
vt 0.893212 0.942548
vt 0.893212 0.967139
vt 0.893212 0.023299
vt 0.980422 0.023299
vt 0.980422 0.967139
vt 0.980422 0.980283
vt 0.132640 0.980283
vt 0.153190 0.980283
vt 0.153190 0.023299
vt 0.873302 0.023299
vn 0.3015 0.3015 0.9045
vn 0.0000 -0.0000 1.0000
vn 0.0000 0.7071 0.7071
vn 0.3015 -0.3015 0.9045
vn -0.3015 -0.3015 0.9045
vn -0.3015 0.3015 0.9045
vn 0.7071 -0.0000 0.7071
vn -0.5774 0.5773 0.5774
vn 0.5774 0.5773 0.5774
vn 0.0000 -0.7071 0.7071
vn 0.5774 -0.5774 0.5774
vn -0.7071 0.0000 0.7071
vn -0.5774 -0.5774 0.5774
vn -0.5774 0.5774 0.5774
vn 0.5774 0.5774 0.5774
vn -0.5774 -0.5774 0.5773
vn 0.5774 -0.5774 0.5773
usemtl TexturesCom_DoorsMetalSingle0212_M
s 1
f 1/1/1 2/2/2 3/3/2 4/4/2
f 5/5/3 6/6/3 7/7/2 8/8/2
f 9/9/3 5/5/3 8/8/2 10/10/2
f 11/11/4 12/12/5 13/13/6 14/14/7
f 15/15/1 13/13/6 16/16/8 17/17/9
f 18/18/4 19/19/2 20/20/2 21/21/7
f 22/22/2 23/23/2 19/19/2 18/18/4
f 24/24/2 25/25/2 26/26/4 12/12/5
f 27/27/2 24/24/2 12/12/5 11/11/4
f 14/14/7 13/13/6 28/28/10 29/29/11
f 13/13/6 15/15/1 30/30/10 28/28/10
f 21/21/7 20/20/2 31/31/2 32/32/7
f 15/15/1 33/33/12 34/34/13 30/30/10
f 25/25/2 35/35/2 36/36/5 26/26/4
f 26/26/4 36/36/5 33/33/12 15/15/1
f 6/6/3 37/37/3 38/38/2 7/7/2
f 29/29/11 39/39/12 40/40/14 41/41/15
f 42/42/2 27/27/2 11/11/4 43/43/5
f 21/21/7 32/32/7 44/44/15 45/45/7
f 46/46/6 9/9/3 10/10/2 47/47/2
f 11/11/4 14/14/7 48/48/7 49/49/11
f 35/35/2 22/22/2 18/18/4 36/36/5
f 50/50/12 43/43/5 51/51/13 52/52/12
f 37/37/3 1/1/1 4/4/2 38/38/2
f 53/53/2 46/46/6 47/47/2 54/54/2
f 55/55/2 43/43/5 50/50/12 56/56/2
f 57/57/2 42/42/2 43/43/5 55/55/2
f 56/56/2 50/50/12 39/39/12 58/58/2
f 58/58/2 39/39/12 46/46/6 53/53/2
f 39/39/12 29/29/11 59/59/10 60/60/13
f 29/29/11 28/28/10 61/61/10 59/59/10
f 37/37/3 6/6/3 62/62/3 63/63/3
f 30/30/10 34/34/13 64/64/10 65/65/10
f 46/46/6 39/39/12 60/60/13 66/66/14
f 32/32/7 31/31/2 2/2/2 1/1/1
f 52/52/12 48/48/7 41/41/15 40/40/14
f 51/51/13 49/49/11 48/48/7 52/52/12
f 67/67/12 45/45/7 44/44/15 68/68/14
f 69/69/13 70/70/11 45/45/7 67/67/12
f 36/36/5 18/18/4 70/70/11 69/69/13
f 33/33/12 36/36/5 69/69/13 67/67/12
f 14/14/7 29/29/11 41/41/15 48/48/7
f 32/32/7 34/34/13 68/68/14 44/44/15
f 39/39/12 50/50/12 52/52/12 40/40/14
f 18/18/4 21/21/7 45/45/7 70/70/11
f 34/34/13 33/33/12 67/67/12 68/68/14
f 43/43/5 11/11/4 49/49/11 51/51/13
f 64/64/10 71/71/11 72/72/15 63/63/3
f 60/60/13 59/59/10 73/73/3 66/66/14
f 65/65/10 64/64/10 63/63/3 62/62/3
f 59/59/10 61/61/10 74/74/3 73/73/3
f 61/61/10 65/65/10 62/62/3 74/74/3
f 5/5/3 9/9/3 73/73/3 74/74/3
f 34/34/13 32/32/7 71/71/11 64/64/10
f 1/1/1 37/37/3 63/63/3 72/72/15
f 32/32/7 1/1/1 72/72/15 71/71/11
f 6/6/3 5/5/3 74/74/3 62/62/3
f 28/28/10 30/30/10 65/65/10 61/61/10
f 9/9/3 46/46/6 66/66/14 73/73/3
f 75/75/16 76/76/17 17/17/9 16/16/8
f 13/13/6 12/12/5 75/75/16 16/16/8
f 12/12/5 26/26/4 76/76/17 75/75/16
f 26/26/4 15/15/1 17/17/9 76/76/17
